<!DOCTYPE svg PUBLIC "-//W3C//DTD SVG 20010904//EN" "http://www.w3.org/TR/2001/REC-SVG-20010904/DTD/svg10.dtd">
<svg version="1.0" xmlns="http://www.w3.org/2000/svg" width="120px" height="120px" viewBox="0 0 2000 2000" preserveAspectRatio="xMidYMid meet">
<g id="layer101" fill="#083b66" stroke="none">
 <path d="M160 1805 c0 -16 6 -25 15 -25 8 0 15 -7 15 -15 0 -8 5 -15 10 -15 6 0 10 -30 10 -70 0 -56 -3 -70 -15 -70 -8 0 -15 -9 -15 -20 0 -17 7 -20 40 -20 l40 0 0 95 c0 57 -4 95 -10 95 -5 0 -10 7 -10 15 0 8 -4 15 -10 15 -5 0 -10 9 -10 20 0 16 -7 20 -30 20 -25 0 -30 -4 -30 -25z"/>
 <path d="M540 1805 c0 -20 5 -25 25 -25 14 0 25 -4 25 -10 0 -5 -11 -10 -25 -10 -18 0 -25 -5 -25 -20 0 -11 -6 -20 -14 -20 -17 0 -28 -50 -19 -90 3 -16 12 -30 19 -30 8 0 14 -7 14 -15 0 -12 13 -15 60 -15 l60 0 0 95 c0 57 -4 95 -10 95 -5 0 -10 7 -10 15 0 8 -4 15 -10 15 -5 0 -10 9 -10 20 0 17 -7 20 -40 20 -36 0 -40 -2 -40 -25z m50 -115 c0 -11 5 -20 10 -20 6 0 10 -13 10 -30 0 -25 -4 -30 -24 -30 -26 0 -37 29 -28 75 5 30 32 34 32 5z"/>
 <path d="M340 1740 c0 -11 -4 -20 -10 -20 -5 0 -10 -11 -10 -25 0 -14 5 -25 10 -25 6 0 10 -7 10 -15 0 -10 11 -15 35 -15 24 0 35 -5 35 -15 0 -10 -10 -15 -30 -15 -23 0 -30 -4 -30 -20 0 -17 7 -20 45 -20 33 0 45 4 45 15 0 8 5 15 10 15 6 0 10 25 10 55 0 32 4 55 11 55 6 0 9 10 7 23 -4 32 -45 36 -51 5 l-4 -23 -2 23 c-1 19 -7 22 -41 22 -33 0 -40 -3 -40 -20z m70 -45 c0 -8 -9 -15 -20 -15 -11 0 -20 7 -20 15 0 8 9 15 20 15 11 0 20 -7 20 -15z"/>
 <path d="M680 1735 c0 -16 6 -25 15 -25 11 0 15 -12 15 -50 0 -38 -4 -50 -15 -50 -8 0 -15 -9 -15 -20 0 -18 7 -20 70 -20 56 0 70 3 70 15 0 8 5 15 10 15 6 0 10 11 10 25 0 20 -5 25 -25 25 -18 0 -25 -5 -25 -20 0 -39 -19 -19 -26 27 -5 32 -3 48 5 51 6 2 11 15 11 28 0 22 -4 24 -50 24 -47 0 -50 -2 -50 -25z"/>
 <path d="M880 1740 c0 -11 -4 -20 -10 -20 -5 0 -10 -11 -10 -25 0 -14 5 -25 10 -25 6 0 10 -7 10 -15 0 -10 11 -15 35 -15 24 0 35 -5 35 -15 0 -10 -10 -15 -30 -15 -23 0 -30 -4 -30 -20 0 -17 7 -20 45 -20 33 0 45 4 45 15 0 8 5 15 10 15 6 0 10 25 10 55 0 30 5 55 10 55 6 0 10 11 10 25 0 34 -46 36 -53 3 l-4 -23 -2 23 c-1 19 -7 22 -41 22 -33 0 -40 -3 -40 -20z m70 -45 c0 -8 -9 -15 -20 -15 -11 0 -20 7 -20 15 0 8 9 15 20 15 11 0 20 -7 20 -15z"/>
 <path d="M1080 1740 c0 -11 -4 -20 -10 -20 -5 0 -10 -9 -10 -20 0 -11 -4 -20 -10 -20 -5 0 -10 -9 -10 -20 0 -11 5 -20 10 -20 6 0 10 -9 10 -20 0 -11 5 -20 10 -20 6 0 10 -7 10 -15 0 -11 12 -15 50 -15 38 0 50 4 50 15 0 8 5 15 10 15 6 0 10 11 10 25 0 20 -5 25 -25 25 -18 0 -25 -5 -25 -20 0 -13 -7 -20 -20 -20 -13 0 -20 7 -20 19 0 11 -6 22 -12 25 -10 5 -10 7 0 12 6 3 12 14 12 25 0 12 7 19 20 19 13 0 20 -7 20 -20 0 -15 7 -20 25 -20 20 0 25 5 25 25 0 14 -4 25 -10 25 -5 0 -10 9 -10 20 0 17 -7 20 -50 20 -43 0 -50 -3 -50 -20z"/>
 <path d="M1260 1740 c0 -11 -6 -20 -14 -20 -8 0 -17 -15 -20 -34 -7 -36 7 -86 24 -86 5 0 10 -7 10 -15 0 -11 12 -15 50 -15 38 0 50 4 50 15 0 8 5 15 10 15 6 0 10 18 10 40 l0 40 -50 0 c-38 0 -50 4 -50 15 0 11 11 15 40 15 36 0 40 3 40 25 0 23 -3 25 -50 25 -43 0 -50 -3 -50 -20z m70 -115 c0 -9 -9 -15 -25 -15 -16 0 -25 6 -25 15 0 9 9 15 25 15 16 0 25 -6 25 -15z"/>
 <path d="M1490 1720 l0 -40 -45 0 c-52 0 -56 -11 -25 -75 11 -22 19 -48 20 -57 0 -10 4 -18 9 -18 5 0 11 -9 14 -20 4 -15 14 -20 41 -20 l36 0 0 75 c0 43 4 75 10 75 6 0 10 9 10 20 0 11 -4 20 -10 20 -5 0 -10 18 -10 40 0 36 -2 40 -25 40 -22 0 -25 -4 -25 -40z m-1 -132 c-1 -29 -4 -44 -6 -33 -3 11 -9 22 -13 25 -5 3 -12 18 -15 33 -6 23 -4 27 14 27 19 0 21 -5 20 -52z"/>
 <path d="M1600 1735 c0 -18 5 -25 19 -25 16 0 19 -8 20 -65 1 -51 -2 -65 -14 -65 -9 0 -15 -10 -15 -25 0 -16 6 -25 15 -25 8 0 15 -9 15 -20 0 -13 7 -20 20 -20 19 0 20 7 20 110 0 103 1 110 20 110 15 0 20 7 20 25 0 24 -3 25 -60 25 -57 0 -60 -1 -60 -25z"/>
 <path d="M1800 1741 c0 -10 -7 -21 -15 -25 -9 -3 -15 -18 -15 -36 0 -18 6 -33 15 -36 8 -4 15 -12 15 -19 0 -7 -7 -15 -15 -19 -9 -3 -15 -18 -15 -36 0 -18 6 -33 15 -36 8 -4 15 -15 15 -25 0 -15 7 -19 40 -19 33 0 40 3 40 20 0 11 5 20 10 20 6 0 10 18 10 40 0 22 -4 40 -10 40 -5 0 -10 7 -10 15 0 8 5 15 10 15 6 0 10 18 10 40 0 22 -4 40 -10 40 -5 0 -10 9 -10 20 0 17 -7 20 -40 20 -33 0 -40 -4 -40 -19z m60 -61 c0 -23 -4 -30 -20 -30 -16 0 -20 7 -20 30 0 23 4 30 20 30 16 0 20 -7 20 -30z m0 -110 c0 -23 -4 -30 -20 -30 -16 0 -20 7 -20 30 0 23 4 30 20 30 16 0 20 -7 20 -30z"/>
 <path d="M210 1515 c0 -20 5 -25 25 -25 20 0 25 5 25 25 0 20 -5 25 -25 25 -20 0 -25 -5 -25 -25z"/>
 <path d="M895 1524 c-398 -42 -705 -254 -781 -539 -18 -65 -18 -206 0 -271 69 -258 337 -463 686 -525 113 -20 326 -16 440 8 334 71 580 269 645 520 19 73 19 193 0 266 -64 248 -315 451 -638 517 -89 19 -279 31 -352 24z m679 -396 c24 -31 24 -34 8 -51 -12 -14 -17 -15 -20 -5 -3 7 -15 34 -28 61 -21 43 -22 46 -4 37 10 -5 30 -24 44 -42z m96 -168 c76 -227 -84 -474 -374 -577 -46 -16 -43 -12 37 41 82 55 160 144 201 228 80 169 76 153 76 299 l0 134 20 -33 c11 -18 29 -59 40 -92z"/>
 </g>
<g id="layer102" fill="#a22231" stroke="none">
 <path d="M895 1524 c-398 -42 -705 -254 -781 -539 -18 -65 -18 -206 0 -271 69 -258 337 -463 686 -525 113 -20 326 -16 440 8 334 71 580 269 645 520 19 73 19 193 0 266 -64 248 -315 451 -638 517 -89 19 -279 31 -352 24z m-74 -129 c19 -10 40 -22 47 -28 7 -6 71 -11 145 -12 157 -2 232 -18 362 -80 67 -31 107 -59 159 -109 59 -56 67 -68 56 -82 -26 -30 -48 -36 -83 -19 -30 14 -37 14 -70 0 -37 -15 -77 -9 -92 15 -5 8 -13 6 -26 -6 -25 -23 -73 -22 -99 1 -20 18 -20 18 -20 -119 0 -157 7 -183 68 -238 87 -78 210 -70 294 19 41 43 48 74 48 216 l0 132 20 -33 c134 -220 31 -490 -240 -627 -106 -53 -223 -86 -331 -92 -305 -18 -590 119 -697 335 -35 73 -37 80 -37 176 0 93 3 106 33 168 60 123 179 227 325 285 64 25 67 27 54 47 -8 12 -36 34 -63 49 l-49 28 81 -4 c48 -3 95 -12 115 -22z m519 -550 c7 -8 10 -25 6 -40 -5 -20 -13 -25 -36 -25 -16 0 -31 4 -34 8 -3 5 5 8 17 8 13 -1 23 6 25 17 4 22 -27 35 -39 16 -5 -8 -9 -9 -9 -3 0 31 49 45 70 19z m160 1 c6 -8 10 -25 8 -38 -2 -19 -9 -23 -37 -23 -20 0 -35 5 -37 13 -1 7 0 8 3 2 2 -5 14 -10 25 -10 14 0 19 6 16 23 -2 17 -9 21 -27 19 -20 -2 -22 0 -11 13 16 19 44 19 60 1z"/>
 <path d="M686 1093 c-60 -9 -134 -71 -161 -135 -48 -117 20 -259 143 -294 77 -23 141 -9 205 45 17 14 13 20 -63 96 l-80 80 75 75 c59 58 72 77 63 87 -26 31 -122 55 -182 46z"/>
 <path d="M882 908 c-17 -17 -15 -53 3 -68 20 -17 62 -5 70 20 14 44 -41 80 -73 48z"/>
 <path d="M1046 898 c-15 -21 -9 -49 15 -63 18 -11 57 4 64 25 16 50 -48 82 -79 38z"/>
 </g>
<g id="layer103" fill="#419a1c" stroke="none">
 <path d="M895 1524 c-398 -42 -705 -254 -781 -539 -18 -65 -18 -206 0 -271 69 -258 337 -463 686 -525 113 -20 326 -16 440 8 334 71 580 269 645 520 19 73 19 193 0 266 -64 248 -315 451 -638 517 -89 19 -279 31 -352 24z m-74 -129 c19 -10 40 -22 47 -28 7 -6 71 -11 145 -12 153 -2 231 -18 355 -75 81 -38 185 -118 217 -167 15 -23 15 -25 -7 -43 -28 -24 -56 -25 -86 -4 -20 14 -24 14 -44 0 -12 -9 -32 -16 -43 -16 -11 0 -31 7 -43 16 -20 14 -24 14 -44 0 -29 -20 -67 -20 -97 0 l-23 16 4 -140 c3 -137 4 -141 33 -184 76 -109 211 -117 323 -20 44 39 52 74 52 222 l0 125 20 -33 c134 -220 31 -490 -240 -627 -106 -53 -223 -86 -331 -92 -305 -18 -590 119 -697 335 -35 73 -37 80 -37 176 0 93 3 106 33 168 60 123 179 227 325 285 64 25 67 27 54 47 -8 12 -36 34 -63 49 l-49 28 81 -4 c48 -3 95 -12 115 -22z m527 -571 c4 -38 -18 -59 -53 -50 -15 4 -27 16 -31 31 -9 35 12 57 50 53 27 -3 31 -7 34 -34z m164 11 c9 -21 8 -28 -7 -45 -24 -27 -51 -25 -70 4 -23 34 -5 66 36 66 22 0 32 -6 41 -25z"/>
 <path d="M686 1093 c-60 -9 -134 -71 -161 -135 -48 -117 20 -259 143 -294 77 -23 141 -9 205 45 17 14 13 20 -63 96 l-80 80 75 75 c59 58 72 77 63 87 -26 31 -122 55 -182 46z"/>
 <path d="M882 908 c-17 -17 -15 -53 3 -68 20 -17 62 -5 70 20 14 44 -41 80 -73 48z"/>
 <path d="M1046 898 c-15 -21 -9 -49 15 -63 18 -11 57 4 64 25 16 50 -48 82 -79 38z"/>
 <path d="M1276 824 c-4 -10 -2 -22 3 -27 14 -14 43 0 39 20 -4 24 -34 28 -42 7z"/>
 <path d="M1442 832 c-18 -12 -4 -42 20 -42 14 0 19 6 16 22 -3 24 -17 32 -36 20z"/>
 </g>
<g id="layer104" fill="#ce1717" stroke="none">
 <path d="M662 1081 c-162 -56 -204 -251 -81 -368 42 -40 75 -52 142 -54 53 -2 137 26 152 51 5 8 -21 41 -71 91 l-79 79 79 79 78 79 -43 25 c-62 35 -113 41 -177 18z"/>
 <path d="M1578 1071 c-31 -25 -56 -27 -86 -5 -20 14 -24 14 -44 0 -12 -9 -32 -16 -43 -16 -11 0 -31 7 -43 16 -20 14 -24 14 -44 0 -29 -20 -67 -20 -97 0 l-23 16 4 -140 c3 -137 4 -141 33 -184 38 -54 102 -88 168 -88 55 0 105 23 159 73 44 42 50 74 46 235 l-3 114 -27 -21z m-230 -247 c4 -38 -18 -59 -53 -50 -15 4 -27 16 -31 31 -9 35 12 57 50 53 27 -3 31 -7 34 -34z m164 11 c9 -21 8 -28 -7 -45 -24 -27 -51 -25 -70 4 -23 34 -5 66 36 66 22 0 32 -6 41 -25z"/>
 <path d="M1276 824 c-4 -10 -2 -22 3 -27 14 -14 43 0 39 20 -4 24 -34 28 -42 7z"/>
 <path d="M1442 832 c-18 -12 -4 -42 20 -42 14 0 19 6 16 22 -3 24 -17 32 -36 20z"/>
 <path d="M1046 898 c-15 -21 -9 -49 15 -63 18 -11 57 4 64 25 16 50 -48 82 -79 38z"/>
 </g>
<g id="layer105" fill="#687aa6" stroke="none">
 <path d="M662 1081 c-162 -56 -204 -251 -81 -368 42 -40 75 -52 142 -54 53 -2 137 26 152 51 5 8 -21 41 -71 91 l-79 79 79 79 78 79 -43 25 c-62 35 -113 41 -177 18z"/>
 <path d="M1046 898 c-15 -21 -9 -49 15 -63 18 -11 57 4 64 25 16 50 -48 82 -79 38z"/>
 <path d="M1276 824 c-4 -10 -2 -22 3 -27 14 -14 43 0 39 20 -4 24 -34 28 -42 7z"/>
 <path d="M1442 832 c-18 -12 -4 -42 20 -42 14 0 19 6 16 22 -3 24 -17 32 -36 20z"/>
 </g>
<g id="layer106" fill="#e5d80e" stroke="none">
 <path d="M662 1081 c-162 -56 -204 -251 -81 -368 42 -40 75 -52 142 -54 53 -2 137 26 152 51 5 8 -21 41 -71 91 l-79 79 79 79 78 79 -43 25 c-62 35 -113 41 -177 18z"/>
 <path d="M1282 813 c2 -10 10 -18 18 -18 22 0 18 29 -3 33 -14 3 -18 -1 -15 -15z"/>
 <path d="M1442 813 c2 -10 10 -18 18 -18 8 0 16 8 18 18 2 12 -3 17 -18 17 -15 0 -20 -5 -18 -17z"/>
 </g>
<g id="layer107" fill="#f2f4f5" stroke="none">
 <path d="M1282 813 c2 -10 10 -18 18 -18 22 0 18 29 -3 33 -14 3 -18 -1 -15 -15z"/>
 <path d="M1442 813 c2 -10 10 -18 18 -18 8 0 16 8 18 18 2 12 -3 17 -18 17 -15 0 -20 -5 -18 -17z"/>
 </g>

</svg>